<?xml version="1.0" encoding="utf-8"?>
<!-- Generator: Adobe Illustrator 24.0.3, SVG Export Plug-In . SVG Version: 6.00 Build 0)  -->
<svg version="1.1" id="图层_1" xmlns="http://www.w3.org/2000/svg" xmlns:xlink="http://www.w3.org/1999/xlink" x="0px" y="0px"
	 viewBox="0 0 640 114" style="enable-background:new 0 0 640 114;" xml:space="preserve">
<style type="text/css">
	.st0{enable-background:new    ;}
	.st1{fill:#0BBCC2;}
</style>
<g class="st0">
	<path class="st1" d="M60.4,12.8v25.1c0,2.3-1.4,2.9-3.2,1.1c-4-3.7-8.4-5.5-12.9-5.5c-4.1,0-8.4,1.4-8.4,5.6c0,3.4,7,6.1,15,9.4
		c16.5,6.6,29.5,12.8,29.5,30.9c0,20.5-19.1,30.4-39.4,30.4c-12.7,0-25.8-3.6-35-10.3c-1.2-0.8-1.7-1.9-1.7-3.3V78.5
		c0-2.1,1.2-2.9,3.2-1.8c9.2,4.7,24.4,8.5,34.4,8.5c5.8,0,9.8-1.5,9.8-5.2c0-4.8-6.7-5.8-20.8-11.7C14,60.7,7.3,52.5,7.3,39.7
		c0-18.3,15-31.5,36.4-31.5c5.1,0,10.1,0.6,14.5,1.5C59.7,10,60.4,11.1,60.4,12.8z"/>
	<path class="st1" d="M164,73c0,21.5-16.1,37.3-39.5,37.3S84.9,94.5,84.9,73s16.1-37.3,39.5-37.3S164,51.5,164,73z M113.5,73
		c0,8.3,5.1,12.4,11,12.4s11-4.1,11-12.4s-5.1-12.4-11-12.4S113.5,64.7,113.5,73z"/>
	<path class="st1" d="M262.8,68.3v23.1c0,1.4-0.3,2.3-1.2,3.3c-9.1,9.6-24.2,15.6-39.7,15.6c-32.1,0-52.9-23.1-52.9-51.2
		c0-28,20.1-51,52.7-51c6.2,0,12.4,1,17.9,3c1.5,0.6,2.2,1.7,2.2,3.2v28.8c0,2.5-1.2,2.8-2.9,0.8c-4.8-5.8-12-8.7-17.8-8.7
		c-14.6,0-22.7,10.5-22.7,23.8c0,13.6,8.7,24.1,23.8,24.1c12.7,0,25.9-4.7,37.2-16.1C261.2,65.3,262.8,65.8,262.8,68.3z"/>
	<path class="st1" d="M301.2,17.9c0,8.3-6.1,14-14.7,14s-14.7-5.8-14.7-14c0-8.3,6.1-14.3,14.7-14.3S301.2,9.6,301.2,17.9z
		 M272.3,105.9V40.1c0-1.8,1-2.8,2.8-2.8h23c1.8,0,2.8,1,2.8,2.8v65.8c0,1.8-1,2.8-2.8,2.8h-23C273.2,108.7,272.3,107.7,272.3,105.9
		z"/>
	<path class="st1" d="M318.7,37.3h27.1c2.2,0,2.8,1.2,1.5,3.2c-3.9,6.1-5.6,14.9-2.9,14.9h1.9c3-11.7,8.1-19.7,17.9-19.7
		c0.7,0,1.4,0,2.1,0.1c1.7,0.1,2.5,1.2,2.5,2.9v21.9c0,1.9-1.1,2.6-2.9,2.3c-1.1-0.1-2.2-0.3-3.4-0.3c-13.1,0-18,8-18,22.3v20.9
		c0,1.8-1,2.8-2.8,2.8h-23c-1.8,0-2.8-1-2.8-2.8V40.1C315.9,38.3,316.9,37.3,318.7,37.3z"/>
	<path class="st1" d="M439.6,80.4v17.9c0,1.4-0.4,2.5-1.5,3.4c-6.7,5.5-16.1,8.5-27,8.5c-22,0-38.8-16-38.8-37.3
		s16.7-37.3,38.7-37.3c3.4,0,6.7,0.3,9.6,1c1.7,0.4,2.3,1.5,2.3,3.2v22.4c0,2.3-1,2.6-2.6,1c-1.9-1.8-4.4-3-7.8-3
		c-6.6,0-11.7,5.1-11.7,12.8s5.4,12.8,15,12.8c7.4,0,15-3,20.5-7C438.2,77.4,439.6,78.2,439.6,80.4z"/>
	<path class="st1" d="M449.2,12.5c0-1.8,1-2.8,2.8-2.8h23c1.8,0,2.8,1,2.8,2.8v68c0,4,1.5,5.6,5.8,5.6c0.6,0,1.1,0,1.7-0.1
		c1.9-0.3,3,0.4,3,2.3v17.5c0,1.5-0.7,2.6-2.2,3.2c-2.8,0.7-6.5,1.2-11,1.2c-16.5,0-25.8-9-25.8-24.5V12.5z"/>
	<path class="st1" d="M562.2,87v13.5c0,1.5-0.6,2.6-1.9,3.3c-8.5,4.8-17.6,6.5-28.9,6.5c-22.6,0-40.6-14.9-40.6-37.3
		c0-21.3,16-37.3,37-37.3c20.5,0,35.4,13.9,35.4,33.3c0,3.4-0.3,6.3-0.6,8.3c-0.3,1.7-1.4,2.5-3,2.5h-32.1c-3.3,0-5.5-1.2-6.6-4.5
		l-1.2,0.3c-0.6,9.9,7,13.6,17.8,13.6c7,0,14.9-1.7,21.6-4.3C560.9,84.1,562.2,85,562.2,87z M519.1,65.3h17.1
		c-0.4-4.3-3.3-7.6-8.7-7.6C522.4,57.7,519.5,61,519.1,65.3z"/>
	<path class="st1" d="M572.8,101.1V87.3c0-2.1,1.2-2.9,3.2-2.2c8,3.3,18.2,5.6,25.9,5.6c5.1,0,8.7-1.1,8.7-3.3
		c0-2.8-5.5-3.9-13.8-6.7c-13.6-4.8-22-10.6-22-22.6c0-14.2,13.1-22.5,31-22.5c4.1,0,8.1,0.3,12,1c1.7,0.3,2.5,1.2,2.5,2.9v18.3
		c0,2.2-1.1,2.6-3,1.4c-3-1.9-7.3-3.2-12.3-3.2c-2.2,0-4.7,0.6-4.7,2.6c0,2.6,5,3,14.5,6.7c15.6,5.9,21.3,10.9,21.3,21.3
		c0,12.8-11.6,23.6-30.6,23.6c-12.4,0-23-1.7-30.9-5.9C573.3,103.7,572.8,102.6,572.8,101.1z"/>
</g>
</svg>
