<?xml version="1.0" encoding="utf-8"?>
<!-- Generator: Adobe Illustrator 24.0.3, SVG Export Plug-In . SVG Version: 6.00 Build 0)  -->
<svg version="1.1" id="图层_1" xmlns="http://www.w3.org/2000/svg" xmlns:xlink="http://www.w3.org/1999/xlink" x="0px" y="0px"
	 viewBox="0 0 114 114" style="enable-background:new 0 0 114 114;" xml:space="preserve">
<style type="text/css">
	.st0{fill:#0BBCC2;}
</style>
<path class="st0" d="M75,10.9v25.1c0,2.3-1.4,2.9-3.2,1.1c-4-3.7-8.4-5.5-12.9-5.5c-4.1,0-8.4,1.4-8.4,5.6c0,3.4,7,6.1,15,9.4
	C82.1,53.1,95,59.3,95,77.4c0,20.5-19.1,30.4-39.4,30.4c-12.7,0-25.8-3.6-35-10.3c-1.2-0.8-1.7-1.9-1.7-3.3V76.6
	c0-2.1,1.2-2.9,3.2-1.8c9.2,4.7,24.4,8.5,34.4,8.5c5.8,0,9.8-1.5,9.8-5.2c0-4.8-6.7-5.8-20.8-11.7c-16.9-7.6-23.7-15.8-23.7-28.6
	c0-18.3,15-31.5,36.4-31.5c5.1,0,10.1,0.6,14.5,1.5C74.4,8.1,75,9.2,75,10.9z"/>
</svg>
